solid OpenSCAD_Model
  facet normal 1 -0 0
    outer loop
      vertex 90 -25 60
      vertex 90 25 -60
      vertex 90 25 60
    endloop
  endfacet
  facet normal 1 0 0
    outer loop
      vertex 90 25 -60
      vertex 90 -25 60
      vertex 90 -25 -60
    endloop
  endfacet
  facet normal 0 0 1
    outer loop
      vertex 90 25 60
      vertex 88 23 60
      vertex 90 -25 60
    endloop
  endfacet
  facet normal 0 0 1
    outer loop
      vertex 90 25 60
      vertex -88 23 60
      vertex 88 23 60
    endloop
  endfacet
  facet normal 0 0 1
    outer loop
      vertex -88 23 60
      vertex -90 25 60
      vertex -88 -23 60
    endloop
  endfacet
  facet normal -0 0 1
    outer loop
      vertex -90 25 60
      vertex -88 23 60
      vertex 90 25 60
    endloop
  endfacet
  facet normal -0 0 1
    outer loop
      vertex 88 -23 60
      vertex 90 -25 60
      vertex 88 23 60
    endloop
  endfacet
  facet normal -0 0 1
    outer loop
      vertex -88 -23 60
      vertex 90 -25 60
      vertex 88 -23 60
    endloop
  endfacet
  facet normal 0 0 1
    outer loop
      vertex -88 -23 60
      vertex -90 -25 60
      vertex 90 -25 60
    endloop
  endfacet
  facet normal 0 0 1
    outer loop
      vertex -90 -25 60
      vertex -88 -23 60
      vertex -90 25 60
    endloop
  endfacet
  facet normal 0 0 -1
    outer loop
      vertex -90 -25 -60
      vertex 90 25 -60
      vertex 90 -25 -60
    endloop
  endfacet
  facet normal -0 0 -1
    outer loop
      vertex 90 25 -60
      vertex -90 -25 -60
      vertex -90 25 -60
    endloop
  endfacet
  facet normal -1 0 0
    outer loop
      vertex -90 -25 -60
      vertex -90 25 60
      vertex -90 25 -60
    endloop
  endfacet
  facet normal -1 -0 0
    outer loop
      vertex -90 25 60
      vertex -90 -25 -60
      vertex -90 -25 60
    endloop
  endfacet
  facet normal 0 1 -0
    outer loop
      vertex 90 25 -60
      vertex -90 25 60
      vertex 90 25 60
    endloop
  endfacet
  facet normal 0 1 0
    outer loop
      vertex -90 25 60
      vertex 90 25 -60
      vertex -90 25 -60
    endloop
  endfacet
  facet normal 0 -1 0
    outer loop
      vertex -90 -25 -60
      vertex 90 -25 60
      vertex -90 -25 60
    endloop
  endfacet
  facet normal 0 -1 -0
    outer loop
      vertex 90 -25 60
      vertex -90 -25 -60
      vertex 90 -25 -60
    endloop
  endfacet
  facet normal -1 0 0
    outer loop
      vertex 88 -23 -57
      vertex 88 23 60
      vertex 88 23 -57
    endloop
  endfacet
  facet normal -1 -0 0
    outer loop
      vertex 88 23 60
      vertex 88 -23 -57
      vertex 88 -23 60
    endloop
  endfacet
  facet normal -0 0 1
    outer loop
      vertex -88 23 -57
      vertex 88 -23 -57
      vertex 88 23 -57
    endloop
  endfacet
  facet normal 0 0 1
    outer loop
      vertex 88 -23 -57
      vertex -88 23 -57
      vertex -88 -23 -57
    endloop
  endfacet
  facet normal 1 -0 0
    outer loop
      vertex -88 -23 60
      vertex -88 23 -57
      vertex -88 23 60
    endloop
  endfacet
  facet normal 1 0 0
    outer loop
      vertex -88 23 -57
      vertex -88 -23 60
      vertex -88 -23 -57
    endloop
  endfacet
  facet normal 0 -1 0
    outer loop
      vertex -88 23 -57
      vertex 88 23 60
      vertex -88 23 60
    endloop
  endfacet
  facet normal 0 -1 -0
    outer loop
      vertex 88 23 60
      vertex -88 23 -57
      vertex 88 23 -57
    endloop
  endfacet
  facet normal 0 1 -0
    outer loop
      vertex 88 -23 -57
      vertex -88 -23 60
      vertex 88 -23 60
    endloop
  endfacet
  facet normal 0 1 0
    outer loop
      vertex -88 -23 60
      vertex 88 -23 -57
      vertex -88 -23 -57
    endloop
  endfacet
endsolid OpenSCAD_Model
