solid OpenSCAD_Model
  facet normal 1 -0 0
    outer loop
      vertex 3 33.5 3
      vertex 3 37.5 -1
      vertex 3 37.5 3
    endloop
  endfacet
  facet normal 1 0 0
    outer loop
      vertex 3 37.5 -1
      vertex 3 33.5 3
      vertex 3 33.5 -1
    endloop
  endfacet
  facet normal -0 0 1
    outer loop
      vertex -3 37.5 3
      vertex 3 33.5 3
      vertex 3 37.5 3
    endloop
  endfacet
  facet normal 0 0 1
    outer loop
      vertex 3 33.5 3
      vertex -3 37.5 3
      vertex -3 33.5 3
    endloop
  endfacet
  facet normal 0 0 -1
    outer loop
      vertex -3 33.5 -1
      vertex 3 37.5 -1
      vertex 3 33.5 -1
    endloop
  endfacet
  facet normal -0 0 -1
    outer loop
      vertex 3 37.5 -1
      vertex -3 33.5 -1
      vertex -3 37.5 -1
    endloop
  endfacet
  facet normal -1 0 0
    outer loop
      vertex -3 33.5 -1
      vertex -3 37.5 3
      vertex -3 37.5 -1
    endloop
  endfacet
  facet normal -1 -0 0
    outer loop
      vertex -3 37.5 3
      vertex -3 33.5 -1
      vertex -3 33.5 3
    endloop
  endfacet
  facet normal 0 1 0
    outer loop
      vertex 6 33.5 4
      vertex 3 33.5 3
      vertex -6 33.5 4
    endloop
  endfacet
  facet normal 0 1 0
    outer loop
      vertex 6 33.5 4
      vertex 3 33.5 -1
      vertex 3 33.5 3
    endloop
  endfacet
  facet normal 0 1 0
    outer loop
      vertex 3 33.5 -1
      vertex 6 33.5 -2
      vertex -3 33.5 -1
    endloop
  endfacet
  facet normal 0 1 -0
    outer loop
      vertex 6 33.5 -2
      vertex 3 33.5 -1
      vertex 6 33.5 4
    endloop
  endfacet
  facet normal 0 1 -0
    outer loop
      vertex -3 33.5 3
      vertex -6 33.5 4
      vertex 3 33.5 3
    endloop
  endfacet
  facet normal 0 1 -0
    outer loop
      vertex -3 33.5 -1
      vertex -6 33.5 4
      vertex -3 33.5 3
    endloop
  endfacet
  facet normal 0 1 0
    outer loop
      vertex -3 33.5 -1
      vertex -6 33.5 -2
      vertex -6 33.5 4
    endloop
  endfacet
  facet normal 0 1 0
    outer loop
      vertex -6 33.5 -2
      vertex -3 33.5 -1
      vertex 6 33.5 -2
    endloop
  endfacet
  facet normal 1 -0 0
    outer loop
      vertex 6 27.5 4
      vertex 6 33.5 -2
      vertex 6 33.5 4
    endloop
  endfacet
  facet normal 1 0 0
    outer loop
      vertex 6 33.5 -2
      vertex 6 27.5 4
      vertex 6 27.5 -2
    endloop
  endfacet
  facet normal -0 0 1
    outer loop
      vertex -6 33.5 4
      vertex 6 27.5 4
      vertex 6 33.5 4
    endloop
  endfacet
  facet normal 0 0 1
    outer loop
      vertex 6 27.5 4
      vertex -6 33.5 4
      vertex -6 27.5 4
    endloop
  endfacet
  facet normal 0 0 -1
    outer loop
      vertex -6 27.5 -2
      vertex 6 33.5 -2
      vertex 6 27.5 -2
    endloop
  endfacet
  facet normal -0 0 -1
    outer loop
      vertex 6 33.5 -2
      vertex -6 27.5 -2
      vertex -6 33.5 -2
    endloop
  endfacet
  facet normal -1 0 0
    outer loop
      vertex -6 27.5 -2
      vertex -6 33.5 4
      vertex -6 33.5 -2
    endloop
  endfacet
  facet normal -1 -0 0
    outer loop
      vertex -6 33.5 4
      vertex -6 27.5 -2
      vertex -6 27.5 4
    endloop
  endfacet
  facet normal 0 -1 0
    outer loop
      vertex -6 27.5 -2
      vertex 6 27.5 4
      vertex -6 27.5 4
    endloop
  endfacet
  facet normal 0 -1 -0
    outer loop
      vertex 6 27.5 4
      vertex -6 27.5 -2
      vertex 6 27.5 -2
    endloop
  endfacet
  facet normal 1 -0 0
    outer loop
      vertex 87.6 37.5 23.6
      vertex 87.6 155.5 -23.6
      vertex 87.6 155.5 23.6
    endloop
  endfacet
  facet normal 1 0 0
    outer loop
      vertex 87.6 155.5 -23.6
      vertex 87.6 37.5 23.6
      vertex 87.6 37.5 -23.6
    endloop
  endfacet
  facet normal 0 0 1
    outer loop
      vertex 87.6 155.5 23.6
      vertex 85.6 153.5 23.6
      vertex 87.6 37.5 23.6
    endloop
  endfacet
  facet normal 0 0 1
    outer loop
      vertex 87.6 155.5 23.6
      vertex -85.6 153.5 23.6
      vertex 85.6 153.5 23.6
    endloop
  endfacet
  facet normal 0 0 1
    outer loop
      vertex -85.6 153.5 23.6
      vertex -87.6 155.5 23.6
      vertex -85.6 39.5 23.6
    endloop
  endfacet
  facet normal -0 0 1
    outer loop
      vertex -87.6 155.5 23.6
      vertex -85.6 153.5 23.6
      vertex 87.6 155.5 23.6
    endloop
  endfacet
  facet normal -0 0 1
    outer loop
      vertex 85.6 39.5 23.6
      vertex 87.6 37.5 23.6
      vertex 85.6 153.5 23.6
    endloop
  endfacet
  facet normal -0 0 1
    outer loop
      vertex -85.6 39.5 23.6
      vertex 87.6 37.5 23.6
      vertex 85.6 39.5 23.6
    endloop
  endfacet
  facet normal 0 0 1
    outer loop
      vertex -85.6 39.5 23.6
      vertex -87.6 37.5 23.6
      vertex 87.6 37.5 23.6
    endloop
  endfacet
  facet normal 0 0 1
    outer loop
      vertex -87.6 37.5 23.6
      vertex -85.6 39.5 23.6
      vertex -87.6 155.5 23.6
    endloop
  endfacet
  facet normal 0 0 -1
    outer loop
      vertex -87.6 37.5 -23.6
      vertex 87.6 155.5 -23.6
      vertex 87.6 37.5 -23.6
    endloop
  endfacet
  facet normal -0 0 -1
    outer loop
      vertex 87.6 155.5 -23.6
      vertex -87.6 37.5 -23.6
      vertex -87.6 155.5 -23.6
    endloop
  endfacet
  facet normal -1 0 0
    outer loop
      vertex -87.6 37.5 -23.6
      vertex -87.6 155.5 23.6
      vertex -87.6 155.5 -23.6
    endloop
  endfacet
  facet normal -1 -0 0
    outer loop
      vertex -87.6 155.5 23.6
      vertex -87.6 37.5 -23.6
      vertex -87.6 37.5 23.6
    endloop
  endfacet
  facet normal 0 1 -0
    outer loop
      vertex 87.6 155.5 -23.6
      vertex -87.6 155.5 23.6
      vertex 87.6 155.5 23.6
    endloop
  endfacet
  facet normal 0 1 0
    outer loop
      vertex -87.6 155.5 23.6
      vertex 87.6 155.5 -23.6
      vertex -87.6 155.5 -23.6
    endloop
  endfacet
  facet normal 0 -1 0
    outer loop
      vertex -87.6 37.5 23.6
      vertex -3 37.5 3
      vertex 87.6 37.5 23.6
    endloop
  endfacet
  facet normal 0 -1 0
    outer loop
      vertex -87.6 37.5 23.6
      vertex -3 37.5 -1
      vertex -3 37.5 3
    endloop
  endfacet
  facet normal 0 -1 -0
    outer loop
      vertex -3 37.5 -1
      vertex -87.6 37.5 -23.6
      vertex 3 37.5 -1
    endloop
  endfacet
  facet normal 0 -1 0
    outer loop
      vertex -87.6 37.5 -23.6
      vertex -3 37.5 -1
      vertex -87.6 37.5 23.6
    endloop
  endfacet
  facet normal 0 -1 0
    outer loop
      vertex 3 37.5 3
      vertex 87.6 37.5 23.6
      vertex -3 37.5 3
    endloop
  endfacet
  facet normal 0 -1 0
    outer loop
      vertex 3 37.5 -1
      vertex 87.6 37.5 23.6
      vertex 3 37.5 3
    endloop
  endfacet
  facet normal 0 -1 0
    outer loop
      vertex 3 37.5 -1
      vertex 87.6 37.5 -23.6
      vertex 87.6 37.5 23.6
    endloop
  endfacet
  facet normal 0 -1 0
    outer loop
      vertex 87.6 37.5 -23.6
      vertex 3 37.5 -1
      vertex -87.6 37.5 -23.6
    endloop
  endfacet
  facet normal -1 0 0
    outer loop
      vertex 85.6 39.5 -21.6
      vertex 85.6 153.5 23.6
      vertex 85.6 153.5 -21.6
    endloop
  endfacet
  facet normal -1 -0 0
    outer loop
      vertex 85.6 153.5 23.6
      vertex 85.6 39.5 -21.6
      vertex 85.6 39.5 23.6
    endloop
  endfacet
  facet normal -0 0 1
    outer loop
      vertex -85.6 153.5 -21.6
      vertex 85.6 39.5 -21.6
      vertex 85.6 153.5 -21.6
    endloop
  endfacet
  facet normal 0 0 1
    outer loop
      vertex 85.6 39.5 -21.6
      vertex -85.6 153.5 -21.6
      vertex -85.6 39.5 -21.6
    endloop
  endfacet
  facet normal 1 -0 0
    outer loop
      vertex -85.6 39.5 23.6
      vertex -85.6 153.5 -21.6
      vertex -85.6 153.5 23.6
    endloop
  endfacet
  facet normal 1 0 0
    outer loop
      vertex -85.6 153.5 -21.6
      vertex -85.6 39.5 23.6
      vertex -85.6 39.5 -21.6
    endloop
  endfacet
  facet normal 0 -1 0
    outer loop
      vertex -85.6 153.5 -21.6
      vertex 85.6 153.5 23.6
      vertex -85.6 153.5 23.6
    endloop
  endfacet
  facet normal 0 -1 -0
    outer loop
      vertex 85.6 153.5 23.6
      vertex -85.6 153.5 -21.6
      vertex 85.6 153.5 -21.6
    endloop
  endfacet
  facet normal 0 1 -0
    outer loop
      vertex 85.6 39.5 -21.6
      vertex -85.6 39.5 23.6
      vertex 85.6 39.5 23.6
    endloop
  endfacet
  facet normal 0 1 0
    outer loop
      vertex -85.6 39.5 23.6
      vertex 85.6 39.5 -21.6
      vertex -85.6 39.5 -21.6
    endloop
  endfacet
endsolid OpenSCAD_Model
